# xmcd CD database file
#
# Track frame offsets:
#	150
#	23394
#	37062
#	58380
#	76842
#	96730
#	114490
#	136605
#	155224
#	169555
#
# Disc length: 2461 seconds
#
# Revision: 0
# Processed by: cddbd v1.5.2PL0 Copyright (c) Steve Scherf et al.
# Submitted via: CDex 1.51
#
DISCID=7e099b0a
DTITLE=Doug Walker - What Heaven Sees In You
DYEAR=2010
DGENRE=LDS Music
TTITLE0=What Heaven Sees In You
TTITLE1=Pure
TTITLE2=The Mountain Of The Lord
TTITLE3=Faith
TTITLE4=The Things I Know
TTITLE5=Integrity
TTITLE6=What I've Become
TTITLE7=Jesus Would
TTITLE8=Witnesses Of His Love
TTITLE9=When The Savior Comes Again
EXTD=YEAR: 2010
EXTT0=
EXTT1=
EXTT2=
EXTT3=
EXTT4=
EXTT5=
EXTT6=
EXTT7=
EXTT8=
EXTT9=
PLAYORDER=
